<?xml version="1.0" encoding="UTF-8" standalone="no"?>
<!-- Created with Inkscape (http://www.inkscape.org/) -->

<svg
   width="256"
   height="256"
   viewBox="0 0 67.733332 67.733333"
   version="1.1"
   id="svg1"
   xml:space="preserve"
   inkscape:version="1.4.3 (0d15f75, 2025-12-25)"
   sodipodi:docname="tertium-logo-classic.svg"
   xmlns:inkscape="http://www.inkscape.org/namespaces/inkscape"
   xmlns:sodipodi="http://sodipodi.sourceforge.net/DTD/sodipodi-0.dtd"
   xmlns="http://www.w3.org/2000/svg"
   xmlns:svg="http://www.w3.org/2000/svg"><sodipodi:namedview
     id="namedview1"
     pagecolor="#ffffff"
     bordercolor="#000000"
     borderopacity="0.25"
     inkscape:showpageshadow="2"
     inkscape:pageopacity="0.0"
     inkscape:pagecheckerboard="0"
     inkscape:deskcolor="#d1d1d1"
     inkscape:document-units="mm"
     inkscape:zoom="1.4378367"
     inkscape:cx="55.986886"
     inkscape:cy="169.35164"
     inkscape:window-width="1920"
     inkscape:window-height="1009"
     inkscape:window-x="-8"
     inkscape:window-y="-8"
     inkscape:window-maximized="1"
     inkscape:current-layer="layer1" /><defs
     id="defs1" /><g
     inkscape:label="Layer 1"
     inkscape:groupmode="layer"
     id="layer1"><path
       style="fill:#000000;stroke-width:0.416482"
       d="m 6.0672617,53.712635 -0.03094,-1.283576 -0.468325,-0.03388 c -0.378611,-0.02739 -0.468322,-0.07489 -0.468322,-0.247936 0,-0.198968 0.08542,-0.214053 1.212133,-0.214053 1.138673,0 1.212136,0.01336 1.212136,0.220388 0,0.183657 -0.07346,0.220389 -0.440775,0.220389 h -0.440779 l -8.33e-4,0.688713 c -0.0017,1.202901 -0.11362,1.821194 -0.34049,1.880522 -0.187017,0.0489 -0.205118,-0.04642 -0.233672,-1.230563 z m 3.026939,1.230066 -0.468325,-0.04695 v -1.481285 -1.481284 h 1.101943 c 1.0284773,0 1.1019403,0.01469 1.1019403,0.220388 0,0.200799 -0.07346,0.220389 -0.826458,0.220389 H 9.1768467 v 0.380644 0.380644 l 0.743812,0.03258 c 0.6594863,0.02889 0.7438073,0.05757 0.7438073,0.252971 0,0.195404 -0.08432,0.224082 -0.7438073,0.252972 l -0.743812,0.03258 v 0.380645 0.380645 h 0.819953 c 0.8236673,0 0.9980983,0.06338 0.8470493,0.307782 -0.09153,0.148108 -1.0380683,0.238598 -1.7496483,0.167268 z m 5.0139933,-0.02509 c -0.09994,-0.03536 -0.325255,-0.256948 -0.50069,-0.492431 -0.237715,-0.319074 -0.40759,-0.435121 -0.666808,-0.455512 -0.341577,-0.02687 -0.347833,-0.01868 -0.347833,0.455698 0,0.441803 -0.02353,0.483062 -0.275486,0.483062 h -0.275486 v -1.487623 -1.48762 h 0.927638 c 1.110582,0 1.234127,0.03969 1.455366,0.467516 0.224146,0.433456 0.117127,1.001111 -0.237853,1.261608 l -0.27155,0.199273 0.329962,0.495873 c 0.370918,0.557425 0.391055,0.624433 0.187679,0.624433 -0.07877,0 -0.224996,-0.02892 -0.324939,-0.06428 z m -0.485089,-1.545587 c 0.150275,-0.05714 0.308567,-0.215216 0.351752,-0.351291 0.114079,-0.359419 -0.285035,-0.646768 -0.89833,-0.646768 h -0.483664 v 0.55097 0.550971 h 0.378507 c 0.208178,0 0.50146,-0.04675 0.651735,-0.103882 z m 7.869317,1.474102 c -0.492669,-0.26732 -0.635002,-0.684365 -0.635002,-1.860622 0,-1.049007 8.33e-4,-1.052316 0.275486,-1.052316 0.274054,0 0.275486,0.0053 0.275486,1.022325 0,1.207021 0.140829,1.513109 0.694962,1.510452 0.676229,-0.0032 0.847753,-0.324721 0.847753,-1.588883 0,-0.933357 0.0029,-0.943894 0.275486,-0.943894 0.272325,0 0.275486,0.01078 0.275486,0.940189 0,1.061845 -0.155927,1.55109 -0.607576,1.906356 -0.355713,0.279806 -0.956342,0.308248 -1.402081,0.06639 z m 3.331986,-1.362556 v -1.550384 h 0.367603 c 0.350324,0 0.387757,0.04144 0.796259,0.881553 0.235758,0.484854 0.45464,0.879303 0.486401,0.876553 0.03178,-0.0027 0.241526,-0.399448 0.466147,-0.881552 0.397681,-0.853548 0.418647,-0.876554 0.798907,-0.876554 h 0.390506 v 1.48762 1.487621 h -0.27135 c -0.266499,0 -0.271917,-0.01823 -0.303032,-1.019296 l -0.03169,-1.019295 -0.437393,0.854004 c -0.567315,1.10768 -0.704612,1.110729 -1.240582,0.02755 -0.224921,-0.45455 -0.435261,-0.826527 -0.467426,-0.826615 -0.03215,-8.8e-5 -0.05848,0.458595 -0.05848,1.019295 0,0.973317 -0.0112,1.021049 -0.247936,1.054668 -0.24704,0.03509 -0.247935,0.0296 -0.247935,-1.515169 z m 8.379727,0.977243 c -0.248281,-0.3141 -0.607314,-0.788167 -0.79785,-1.053484 -0.190536,-0.265317 -0.387607,-0.482394 -0.437943,-0.482394 -0.05033,0 -0.09151,0.446286 -0.09151,0.991747 0,0.967656 -0.0063,0.991747 -0.259081,0.991747 -0.258044,0 -0.259172,-0.006 -0.282183,-1.487621 l -0.02311,-1.48762 h 0.322807 c 0.277389,0 0.428514,0.139543 1.074064,0.991747 0.413192,0.545461 0.791607,0.991747 0.840927,0.991747 0.04932,0 0.08967,-0.440503 0.08967,-0.978895 0,-0.895905 0.01924,-0.98393 0.227129,-1.03829 0.127514,-0.03335 0.249851,-1.8e-4 0.278938,0.07562 0.02849,0.07426 0.03786,0.77703 0.02082,1.561712 -0.02978,1.370733 -0.04044,1.428037 -0.271129,1.460885 -0.178129,0.02536 -0.356671,-0.113254 -0.691547,-0.536902 z m 3.005119,0.343661 c -0.767605,-0.348506 -1.072053,-1.220409 -0.711076,-2.036454 0.262654,-0.593774 0.772798,-0.944028 1.375831,-0.944614 0.975774,-9.58e-4 1.614466,0.645521 1.614466,1.634123 0,0.470286 -0.05526,0.624622 -0.339645,0.948515 -0.30853,0.351395 -0.875028,0.614331 -1.313267,0.609544 -0.09091,-9.99e-4 -0.372747,-0.09599 -0.626309,-0.211114 z m 1.442971,-0.675858 c 0.32314,-0.384033 0.366238,-0.837685 0.124066,-1.305994 -0.180915,-0.349845 -0.367412,-0.448657 -0.84679,-0.448657 -0.474831,0 -0.751429,0.184679 -0.935147,0.624386 -0.313103,0.749357 0.160291,1.469301 0.966129,1.469301 0.318596,0 0.468129,-0.07329 0.691742,-0.339036 z m 2.241225,0.807801 c -0.17189,-0.03935 -0.192839,-0.204884 -0.192839,-1.523688 v -1.479543 h 0.309858 c 0.222993,0 0.382468,0.100398 0.56886,0.358131 0.489266,0.676535 1.270127,1.624541 1.338451,1.624952 0.03761,2.26e-4 0.0624,-0.445848 0.0551,-0.991275 -0.01283,-0.958872 -0.0051,-0.991688 0.234649,-0.991747 0.244879,-6e-5 0.247936,0.01829 0.247936,1.487559 v 1.487621 h -0.270671 c -0.208962,0 -0.453911,-0.229317 -1.074394,-1.005821 l -0.803718,-1.005819 -0.03224,0.977441 c -0.01774,0.537593 -0.06731,1.006443 -0.110193,1.041888 -0.04288,0.03545 -0.164744,0.04458 -0.270805,0.0203 z m 13.973484,-0.0032 c -0.03382,-0.03381 -0.06148,-0.623468 -0.06148,-1.310344 v -1.248866 h -0.440775 c -0.367312,0 -0.440775,-0.03673 -0.440775,-0.220389 0,-0.207031 0.07346,-0.220388 1.212132,-0.220388 1.126712,0 1.212136,0.01508 1.212136,0.214052 0,0.173048 -0.08971,0.220544 -0.468325,0.247937 l -0.468325,0.03389 -0.03103,1.227746 c -0.02786,1.101494 -0.05269,1.233407 -0.241555,1.282796 -0.115782,0.03028 -0.238178,0.02738 -0.271988,-0.0064 z m 3.254966,-0.05392 c -0.636638,-0.32718 -0.8615,-1.010749 -0.731579,-2.223938 0.06552,-0.611844 0.109651,-0.72213 0.288951,-0.72213 0.192223,0 0.211618,0.0865 0.211618,0.943894 0,1.264162 0.171524,1.58564 0.847753,1.588883 0.554133,0.0027 0.694962,-0.303431 0.694962,-1.510452 0,-1.017017 0.0012,-1.022325 0.275486,-1.022325 0.274619,0 0.275486,0.0033 0.275486,1.052316 0,1.232679 -0.156735,1.641144 -0.720043,1.876509 -0.458063,0.19139 -0.79391,0.196458 -1.142634,0.01724 z m 5.359157,0.05161 c -0.209636,-0.02575 -0.416694,-0.189089 -0.661165,-0.521544 -0.26791,-0.364324 -0.4309,-0.485109 -0.658982,-0.488344 -0.286327,-0.004 -0.303032,0.02304 -0.303032,0.491576 0,0.455469 -0.02245,0.495874 -0.275486,0.495874 h -0.275486 v -1.487616 -1.48762 h 0.941656 c 0.852863,0 0.967167,0.0255 1.212137,0.270476 0.367437,0.367436 0.362414,0.92568 -0.01233,1.371038 l -0.282803,0.336093 0.348524,0.506561 c 0.191686,0.278608 0.331344,0.516562 0.31035,0.528785 -0.02099,0.01222 -0.175518,0.0054 -0.343385,-0.01527 z m -0.545758,-1.626501 c 0.303432,-0.212533 0.320903,-0.661586 0.03178,-0.81633 -0.117227,-0.06274 -0.414754,-0.114071 -0.661165,-0.114071 h -0.44802 v 0.55097 0.55097 h 0.416257 c 0.22894,0 0.526466,-0.07719 0.661165,-0.171539 z m -45.525761,1.092809 c -0.03852,-0.281189 -0.07008,-0.851443 -0.07008,-1.267232 v -0.755978 h -0.440775 c -0.367312,0 -0.440775,-0.03673 -0.440775,-0.220389 0,-0.207031 0.07346,-0.220388 1.212132,-0.220388 1.126716,0 1.212137,0.01508 1.212137,0.214052 0,0.173048 -0.08972,0.220544 -0.468325,0.247937 l -0.468326,0.03389 -0.03115,1.239684 c -0.02807,1.116818 -0.05116,1.239683 -0.232959,1.239683 -0.156538,0 -0.217515,-0.114669 -0.271875,-0.511253 z m 2.574581,-0.976367 v -1.487615 h 0.275486 0.275486 v 1.48762 1.487621 h -0.275486 -0.275486 z m 26.777166,0 v -1.487615 l 0.854004,0.0016 c 0.469704,8.75e-4 0.973193,0.06288 1.118865,0.137743 0.659362,0.338858 0.973968,1.373622 0.623615,2.051127 -0.298634,0.577497 -0.757089,0.783859 -1.74248,0.784334 l -0.854004,4.12e-4 z m 1.87226,0.772299 c 0.248564,-0.224946 0.388027,-0.806659 0.277152,-1.156001 -0.105616,-0.332767 -0.694842,-0.662241 -1.185215,-0.662729 l -0.413225,-4.12e-4 v 1.060863 1.060864 l 0.552084,-0.05305 c 0.309987,-0.02979 0.6473,-0.139212 0.769204,-0.249535 z m 2.199914,-0.74475 c 0.59115,-1.362918 0.65473,-1.462246 0.955521,-1.492753 0.314248,-0.03187 0.337184,0.0019 0.925543,1.363117 0.33182,0.767689 0.619842,1.439428 0.640041,1.492753 0.0202,0.05333 -0.09009,0.09696 -0.245108,0.09696 -0.201698,0 -0.330445,-0.094 -0.452786,-0.330583 -0.163452,-0.316082 -0.202498,-0.330582 -0.890117,-0.330582 -0.699997,0 -0.722233,0.0088 -0.834404,0.330582 -0.09102,0.261106 -0.18005,0.330583 -0.423612,0.330583 h -0.308372 z m 1.437532,0.257072 c 0,-0.05558 -0.102904,-0.340709 -0.228673,-0.633616 l -0.228669,-0.532557 -0.254804,0.55097 c -0.140146,0.303034 -0.232663,0.588161 -0.205604,0.633616 0.0709,0.119096 0.91775,0.102106 0.91775,-0.01841 z M 2.8957836,47.800908 V 47.525423 H 34.135808 65.375833 v 0.275485 0.275485 H 34.135808 2.8957836 Z M 18.984119,43.903995 c 0,-0.158645 0.108365,-0.220263 0.475989,-0.270651 0.687561,-0.09424 1.031246,-0.248895 1.231165,-0.554009 0.158697,-0.242203 0.17526,-1.520557 0.168834,-13.030551 -0.0061,-10.931754 -0.02995,-12.796841 -0.166293,-13.004924 -0.162078,-0.24736 -0.555741,-0.409442 -1.296466,-0.533788 -0.312911,-0.05253 -0.413229,-0.121659 -0.413229,-0.284765 0,-0.209742 0.104121,-0.215395 3.966988,-0.215395 3.862871,0 3.966987,0.0057 3.966987,0.215395 0,0.163106 -0.100313,0.232235 -0.413224,0.284765 -0.227279,0.03815 -0.574237,0.118576 -0.77102,0.178717 -0.738426,0.225679 -0.689053,-0.73367 -0.689053,13.389244 v 12.806948 l 0.247936,0.286792 c 0.181353,0.209774 0.432887,0.321768 0.936651,0.417036 0.53657,0.101473 0.68871,0.173361 0.68871,0.325421 0,0.183157 -0.244274,0.195176 -3.966987,0.195176 -3.797101,0 -3.966988,-0.0088 -3.966988,-0.205411 z m 11.239798,0.0071 c 0,-0.154166 0.14988,-0.229297 0.672922,-0.337331 0.427023,-0.0882 0.769296,-0.235361 0.936651,-0.402717 l 0.263728,-0.263729 -0.0017,-12.704877 c -0.0012,-9.936254 -0.03161,-12.764912 -0.139275,-12.980363 -0.17648,-0.35319 -0.790337,-0.660775 -1.319172,-0.660994 -0.367266,-1.52e-4 -0.413229,-0.03081 -0.413229,-0.275656 v -0.275484 h 3.911891 c 3.825887,0 3.911891,0.0048 3.911891,0.218289 0,0.14959 -0.09537,0.237866 -0.303036,0.280495 -0.77444,0.158977 -1.109636,0.288381 -1.304387,0.503562 -0.204618,0.226083 -0.211627,0.600071 -0.239715,12.794092 -0.01962,8.510352 0.0084,12.699682 0.08669,12.990616 0.13322,0.494739 0.484768,0.726769 1.262668,0.833392 0.387811,0.05316 0.497775,0.113604 0.497775,0.273637 0,0.19656 -0.168546,0.205411 -3.911891,0.205411 -3.69348,0 -3.911891,-0.01107 -3.911891,-0.198341 z m 11.239798,-0.0095 c 0,-0.163433 0.111596,-0.224612 0.521972,-0.286151 0.796751,-0.11948 1.105255,-0.323691 1.238921,-0.820082 0.07894,-0.293174 0.106677,-4.455826 0.08669,-13.011726 l -0.02936,-12.580642 -0.299163,-0.25731 c -0.16454,-0.14152 -0.573633,-0.31429 -0.9091,-0.383932 -0.485247,-0.100737 -0.609942,-0.170081 -0.609942,-0.339199 0,-0.20598 0.121388,-0.212576 3.911891,-0.212576 3.8082,0 3.911891,0.0057 3.911891,0.215395 0,0.163505 -0.09955,0.231565 -0.413229,0.282518 -0.719447,0.116864 -1.177801,0.328117 -1.319505,0.608152 -0.107223,0.211893 -0.137672,3.043629 -0.138942,12.921606 -0.0017,14.332028 -0.07954,13.170614 0.900662,13.461705 0.313631,0.09314 0.660411,0.169341 0.770624,0.169341 0.126927,0 0.20039,0.0808 0.20039,0.220388 0,0.21625 -0.07346,0.220389 -3.911891,0.220389 -3.759942,0 -3.911891,-0.0081 -3.911891,-0.207876 z"
       id="path2" /></g></svg>
