<?xml version="1.0" encoding="UTF-8" standalone="no"?><!DOCTYPE svg PUBLIC "-//W3C//DTD SVG 1.1//EN" "http://www.w3.org/Graphics/SVG/1.1/DTD/svg11.dtd"><svg width="100%" height="100%" viewBox="0 0 40 40" version="1.1" xmlns="http://www.w3.org/2000/svg" xmlns:xlink="http://www.w3.org/1999/xlink" xml:space="preserve" xmlns:serif="http://www.serif.com/" style="fill-rule:evenodd;clip-rule:evenodd;stroke-linejoin:round;stroke-miterlimit:1.41421;"><path d="M18.251,6c-0.078,-0.676 -0.168,-1.378 -0.274,-2.114l4.046,0c-0.106,0.736 -0.197,1.438 -0.276,2.114l10.253,0l0,3l-1.963,0c-3.203,7.056 -2.766,20.377 1.946,25.138c-1.313,-0.578 -2.798,-1.056 -4.41,-1.408c-0.938,-3.647 -1.593,-6.518 -1.659,-11.484c-0.06,-4.517 0.324,-8.241 1.276,-12.246l-5.726,0c-0.243,3.402 -0.199,6.52 -0.166,10.995c0.045,6.224 0.063,11.657 0.688,16.119l-3.972,0c0.625,-4.462 0.607,-9.895 0.652,-16.119c0.033,-4.475 0.094,-7.593 -0.139,-10.995l-5.717,0c0.952,4.005 1.336,7.729 1.276,12.246c-0.066,4.966 -0.721,7.837 -1.659,11.484c-1.612,0.352 -3.097,0.83 -4.41,1.408c4.712,-4.761 5.149,-18.082 1.946,-25.138l-1.963,0l0,-3l10.251,0Z"/></svg>